<?xml version="1.0" encoding="utf-8"?>
<!-- Generator: Adobe Illustrator 19.0.0, SVG Export Plug-In . SVG Version: 6.00 Build 0)  -->
<svg version="1.1" id="Layer_2" xmlns="http://www.w3.org/2000/svg" xmlns:xlink="http://www.w3.org/1999/xlink" x="0px" y="0px"
	 viewBox="0 0 70 210" enable-background="new 0 0 70 210" xml:space="preserve">
<g id="XMLID_323_">
	
		<polygon id="XMLID_336_" fill="#F6A530" stroke="#C17B27" stroke-width="5" stroke-linecap="round" stroke-linejoin="round" stroke-miterlimit="10" points="
		18.7,158.2 7.8,179.9 17.1,202.8 29.8,200 22.8,180.8 30.7,166.2 	"/>
	
		<polygon id="XMLID_335_" fill="#F6A530" stroke="#C17B27" stroke-width="5" stroke-linecap="round" stroke-linejoin="round" stroke-miterlimit="10" points="
		45.6,156.4 62.2,172.1 57.1,197.5 44,197.7 47.7,176.4 35.6,167 	"/>
	<path id="XMLID_334_" fill="#52D8D5" stroke="#1B7770" stroke-width="5" stroke-miterlimit="10" d="M13.6,7.2
		c0,0,33.2,15.6,33.2,75.4c0,63.5-9,74.5-8.9,74.5L17,152.8c0,0,19.2-61.6-3.4-119.4V7.2z"/>
	<g id="XMLID_325_">
		<line id="XMLID_333_" stroke="#1B7770" stroke-width="2" stroke-miterlimit="10" x1="34.6" y1="29.2" x2="23" y2="37.6"/>
		<line id="XMLID_332_" stroke="#1B7770" stroke-width="2" stroke-miterlimit="10" x1="40.5" y1="42.2" x2="23" y2="55.2"/>
		<line id="XMLID_331_" stroke="#1B7770" stroke-width="2" stroke-miterlimit="10" x1="45.5" y1="63" x2="23" y2="70.5"/>
		<line id="XMLID_330_" stroke="#1B7770" stroke-width="2" stroke-miterlimit="10" x1="46.7" y1="78.9" x2="24.1" y2="83.2"/>
		<line id="XMLID_329_" stroke="#1B7770" stroke-width="2" stroke-miterlimit="10" x1="46.7" y1="94.9" x2="24.6" y2="96.8"/>
		<line id="XMLID_328_" stroke="#1B7770" stroke-width="2" stroke-miterlimit="10" x1="46.3" y1="108.9" x2="24.6" y2="108.9"/>
		<line id="XMLID_327_" stroke="#1B7770" stroke-width="2" stroke-miterlimit="10" x1="45.4" y1="121.8" x2="23" y2="121.8"/>
		<line id="XMLID_326_" stroke="#1B7770" stroke-width="2" stroke-miterlimit="10" x1="44.1" y1="134.4" x2="21.5" y2="133.4"/>
	</g>
	<circle id="XMLID_324_" fill="#F6A530" stroke="#C17B27" stroke-width="5" stroke-miterlimit="10" cx="30.9" cy="151.9" r="20.6"/>
</g>
</svg>
