<?xml version="1.0" encoding="utf-8"?>
<!-- Generator: Adobe Illustrator 19.0.0, SVG Export Plug-In . SVG Version: 6.00 Build 0)  -->
<svg version="1.1" id="Layer_2" xmlns="http://www.w3.org/2000/svg" xmlns:xlink="http://www.w3.org/1999/xlink" x="0px" y="0px"
	 viewBox="0 0 240 375" enable-background="new 0 0 240 375" xml:space="preserve">
<g id="XMLID_420_">
	
		<rect id="XMLID_455_" x="107.4" y="350.7" fill="#52D8D5" stroke="#1B7770" stroke-width="5" stroke-miterlimit="10" width="26.2" height="20.3"/>
	<g id="XMLID_422_">
		
			<polyline id="XMLID_454_" fill="none" stroke="#C17B27" stroke-width="5" stroke-linecap="round" stroke-linejoin="round" stroke-miterlimit="10" points="
			122.8,109.5 122.8,88.4 95.9,83.4 140.7,73 98.9,59.1 122.4,52.8 122.4,40 		"/>
		
			<circle id="XMLID_453_" display="none" fill="#FCD381" stroke="#000000" stroke-width="5" stroke-miterlimit="10" cx="122.8" cy="113.8" r="30.3"/>
		<path id="XMLID_452_" fill="#F6A530" stroke="#C17B27" stroke-width="5" stroke-miterlimit="10" d="M155,117.6H89.8
			c-4.6,0-8.3-3.7-8.3-8.3v-0.8c0-4.6,3.7-8.3,8.3-8.3H155c4.6,0,8.3,3.7,8.3,8.3v0.8C163.3,113.9,159.6,117.6,155,117.6z"/>
		<g id="XMLID_448_">
			<path id="XMLID_451_" fill="#25B3B4" stroke="#1B7770" stroke-width="6" stroke-miterlimit="10" d="M199.5,112h-159
				c-21.1,0-37.7,18-36,39.1l7.2,86.9l0.1,0l6.6,79.6c1.5,18.7,17.2,33.1,36,33.1h136.9c19.3,0,35.1-15.1,36.1-34.4l3.8-77.8l0.1,0
				l4.3-88.7C236.6,129.3,220.1,112,199.5,112z"/>
			<path id="XMLID_450_" fill="#FCD381" stroke="#1B7770" stroke-width="5" stroke-miterlimit="10" d="M50,260.6
				c0-14.6-11.8-26.4-26.4-26.4c-4.3,0-8.3,1-11.8,2.8l4,48.9c2.5,0.8,5.1,1.2,7.8,1.2C38.1,287,50,275.1,50,260.6z"/>
			<path id="XMLID_449_" fill="#FCD381" stroke="#1B7770" stroke-width="5" stroke-miterlimit="10" d="M218.3,234.1
				c-14.6,0-26.4,11.8-26.4,26.4c0,14.6,11.8,26.4,26.4,26.4c3.8,0,7.4-0.8,10.6-2.2l2.3-47.2C227.4,235.4,223,234.1,218.3,234.1z"
				/>
		</g>
		<circle id="XMLID_447_" stroke="#17726F" stroke-width="5" stroke-miterlimit="10" cx="74.4" cy="206.4" r="24.4"/>
		<circle id="XMLID_446_" stroke="#17726F" stroke-width="5" stroke-miterlimit="10" cx="169.7" cy="211.6" r="18.5"/>
		
			<path id="XMLID_445_" fill="none" stroke="#000000" stroke-width="5" stroke-linecap="round" stroke-linejoin="round" stroke-miterlimit="10" d="
			M135.9,271.2c0,7.5-6.1,13.6-13.6,13.6c-7.5,0-13.6-6.1-13.6-13.6"/>
		<circle id="XMLID_444_" fill="#FFFFFF" cx="173.3" cy="203.2" r="3.1"/>
		<circle id="XMLID_443_" fill="#FFFFFF" cx="82" cy="209.6" r="7.5"/>
		<circle id="XMLID_442_" fill="#FFFFFF" cx="165.8" cy="212.8" r="7.5"/>
		<circle id="XMLID_441_" fill="#FFFFFF" cx="74.9" cy="199.9" r="3"/>
		<circle id="XMLID_440_" fill="#F6A530" stroke="#C17B27" stroke-width="5" stroke-miterlimit="10" cx="123" cy="24.4" r="20.4"/>
	</g>
	<line id="XMLID_421_" stroke="#1B7770" stroke-width="2" stroke-miterlimit="10" x1="109.8" y1="360.9" x2="132.6" y2="360.9"/>
</g>
</svg>
