<?xml version="1.0" encoding="utf-8"?>
<!-- Generator: Adobe Illustrator 19.0.0, SVG Export Plug-In . SVG Version: 6.00 Build 0)  -->
<svg version="1.1" id="Layer_2" xmlns="http://www.w3.org/2000/svg" xmlns:xlink="http://www.w3.org/1999/xlink" x="0px" y="0px"
	 viewBox="0 0 65 185" enable-background="new 0 0 65 185" xml:space="preserve">
<g id="XMLID_614_">
	<path id="XMLID_625_" fill="#52D8D5" stroke="#1B7770" stroke-width="5" stroke-miterlimit="10" d="M45.3,17.7
		c0,0,15.9,103.6-3.5,146.3H18.5c0,0,19.1-61.9,0-142.5L45.3,17.7z"/>
	<path id="XMLID_624_" fill="#F6A530" stroke="#C17B27" stroke-width="5" stroke-miterlimit="10" d="M18.6,36l33.6-9.2
		c5.5-1.5,8.7-7.2,7.2-12.7l-0.3-0.9c-1.5-5.5-7.2-8.7-12.7-7.2l-33.6,9.2c-5.5,1.5-8.7,7.2-7.2,12.7l0.3,0.9
		C7.4,34.2,13.1,37.5,18.6,36z"/>
	<circle id="XMLID_623_" fill="#F6A530" stroke="#C17B27" stroke-width="5" stroke-miterlimit="10" cx="31.8" cy="159.1" r="20.4"/>
	<g id="XMLID_615_">
		<line id="XMLID_622_" stroke="#1B7770" stroke-width="2" stroke-miterlimit="10" x1="47.6" y1="44.9" x2="22.8" y2="50.6"/>
		<line id="XMLID_621_" stroke="#1B7770" stroke-width="2" stroke-miterlimit="10" x1="47.6" y1="63.1" x2="26.5" y2="66.8"/>
		<line id="XMLID_620_" stroke="#1B7770" stroke-width="2" stroke-miterlimit="10" x1="28" y1="81.5" x2="50.2" y2="78.3"/>
		<line id="XMLID_619_" stroke="#1B7770" stroke-width="2" stroke-miterlimit="10" x1="28" y1="94.8" x2="50.8" y2="94.8"/>
		<line id="XMLID_618_" stroke="#1B7770" stroke-width="2" stroke-miterlimit="10" x1="28" y1="109.4" x2="50.2" y2="109.4"/>
		<line id="XMLID_617_" stroke="#1B7770" stroke-width="2" stroke-miterlimit="10" x1="50.2" y1="122.7" x2="26.5" y2="122.7"/>
		<line id="XMLID_616_" stroke="#1B7770" stroke-width="2" stroke-miterlimit="10" x1="49.3" y1="136.8" x2="26.5" y2="136.8"/>
	</g>
</g>
</svg>
