<?xml version="1.0" encoding="utf-8"?>
<!-- Generator: Adobe Illustrator 19.0.0, SVG Export Plug-In . SVG Version: 6.00 Build 0)  -->
<svg version="1.1" id="Layer_1" xmlns="http://www.w3.org/2000/svg" xmlns:xlink="http://www.w3.org/1999/xlink" x="0px" y="0px"
	 viewBox="0 0 842 59.3" enable-background="new 0 0 842 59.3" xml:space="preserve">
<g id="XMLID_45_">
	<path id="XMLID_28_" fill="#F6A530" d="M407.2,33.1c-1.9-1.9-1.9-5,0-6.9l9.6-9.5h-77.1l-9.6,9.6c-1.9,1.9-1.9,5,0,6.9l9.6,9.5
		h77.1L407.2,33.1z"/>
	<path id="XMLID_4_" fill="#F6A530" d="M548.2,33.1c-1.9-1.9-1.9-5,0-6.9l9.6-9.5h-77.1l-9.6,9.6c-1.9,1.9-1.9,5,0,6.9l9.6,9.5h77.1
		L548.2,33.1z"/>
	<path id="XMLID_29_" fill="#F86C00" d="M316,33.1c-1.9-1.9-1.9-5,0-6.9l9.6-9.5h-10.9l-9.6,9.6c-1.9,1.9-1.9,5,0,6.9l9.6,9.5h10.9
		L316,33.1z"/>
	<path id="XMLID_30_" fill="#F86C00" d="M432.1,33.1c-1.9-1.9-1.9-5,0-6.9l9.6-9.5h-10.9l-9.6,9.6c-1.9,1.9-1.9,5,0,6.9l9.6,9.5
		h10.9L432.1,33.1z"/>
	<path id="XMLID_31_" fill="#F86C00" d="M466.6,16.7h-10.9l-9.6,9.6c-1.9,1.9-1.9,5,0,6.9l9.6,9.5h10.9l-9.6-9.6
		c-1.9-1.9-1.9-5,0-6.9L466.6,16.7z"/>
	<path id="XMLID_7_" fill="#F6A530" d="M689.2,33.1c-1.9-1.9-1.9-5,0-6.9l9.6-9.5h-77.1l-9.6,9.6c-1.9,1.9-1.9,5,0,6.9l9.6,9.5h77.1
		L689.2,33.1z"/>
	<path id="XMLID_6_" fill="#F86C00" d="M573.1,33.1c-1.9-1.9-1.9-5,0-6.9l9.6-9.5h-10.9l-9.6,9.6c-1.9,1.9-1.9,5,0,6.9l9.6,9.5h10.9
		L573.1,33.1z"/>
	<path id="XMLID_5_" fill="#F86C00" d="M607.6,16.7h-10.9l-9.6,9.6c-1.9,1.9-1.9,5,0,6.9l9.6,9.5h10.9l-9.6-9.6
		c-1.9-1.9-1.9-5,0-6.9L607.6,16.7z"/>
	<path id="XMLID_11_" fill="#F6A530" d="M830.2,33.1c-1.9-1.9-1.9-5,0-6.9l9.6-9.5h-77.1l-9.6,9.6c-1.9,1.9-1.9,5,0,6.9l9.6,9.5
		h77.1L830.2,33.1z"/>
	<path id="XMLID_10_" fill="#F86C00" d="M714.1,33.1c-1.9-1.9-1.9-5,0-6.9l9.6-9.5h-10.9l-9.6,9.6c-1.9,1.9-1.9,5,0,6.9l9.6,9.5
		h10.9L714.1,33.1z"/>
	<path id="XMLID_8_" fill="#F86C00" d="M748.6,16.7h-10.9l-9.6,9.6c-1.9,1.9-1.9,5,0,6.9l9.6,9.5h10.9l-9.6-9.6
		c-1.9-1.9-1.9-5,0-6.9L748.6,16.7z"/>
	<path id="XMLID_32_" fill="#F86C00" d="M291.2,33.1c-1.9-1.9-1.9-5,0-6.9l9.6-9.5h-10.9l-9.6,9.6c-1.9,1.9-1.9,5,0,6.9l9.6,9.5
		h10.9L291.2,33.1z"/>
	<path id="XMLID_33_" fill="#F6A530" d="M266.3,33.1c-1.9-1.9-1.9-5,0-6.9l9.6-9.5h-77.1l-9.6,9.6c-1.9,1.9-1.9,5,0,6.9l9.6,9.5
		h77.1L266.3,33.1z"/>
	<path id="XMLID_34_" fill="#F6A530" d="M125.4,33.1c-1.9-1.9-1.9-5,0-6.9l9.6-9.5H95.8c-18.8,0-37.5-3.8-54.6-11.5
		c-3.3-1.5-7-2.4-10.9-2.4C15.9,2.5,3.7,13.9,3,28.3C2.3,43.8,14.6,56.6,30,56.6c3.8,0,7.4-0.9,10.7-2.3c17-7.4,35.3-11.7,53.9-11.7
		H135L125.4,33.1z"/>
	<path id="XMLID_36_" fill="#F86C00" d="M175.1,33.1c-1.9-1.9-1.9-5,0-6.9l9.6-9.5h-10.9l-9.6,9.6c-1.9,1.9-1.9,5,0,6.9l9.6,9.5
		h10.9L175.1,33.1z"/>
	<path id="XMLID_37_" fill="#F86C00" d="M150.3,33.1c-1.9-1.9-1.9-5,0-6.9l9.6-9.5H149l-9.6,9.6c-1.9,1.9-1.9,5,0,6.9l9.6,9.5h10.9
		L150.3,33.1z"/>
	<circle id="XMLID_9_" fill="#1B7770" cx="29.9" cy="29.6" r="26.8"/>
	<circle id="XMLID_1_" fill="#25B3B4" cx="29.9" cy="29.6" r="20.1"/>
</g>
</svg>
