<?xml version="1.0" encoding="utf-8"?>
<!-- Generator: Adobe Illustrator 19.0.0, SVG Export Plug-In . SVG Version: 6.00 Build 0)  -->
<svg version="1.1" id="Layer_2" xmlns="http://www.w3.org/2000/svg" xmlns:xlink="http://www.w3.org/1999/xlink" x="0px" y="0px"
	 viewBox="-382 196 195 170" enable-background="new -382 196 195 170" xml:space="preserve">
<path id="XMLID_561_" fill="#25B3B4" stroke="#1B7770" stroke-width="6" stroke-miterlimit="10" d="M-339.1,206.1H-230
	c17.4,0,30.4,16.1,26.7,33.1l-22,100.8c-2.7,12.5-13.8,21.5-26.7,21.5h-70c-13.3,0-24.7-9.6-26.9-22.7L-366,237.9
	C-368.8,221.3-356,206.1-339.1,206.1z"/>
<path display="none" fill="#25B3B4" stroke="#1B7770" stroke-width="6" stroke-miterlimit="10" d="M-250.4,361.5
	c14,0,25.9-10.2,28-24l15.4-98.6c2.7-17.2-10.6-32.8-28-32.8h-99c-17.4,0-30.7,15.5-28,32.8l15.4,98.6c2.2,13.8,14.1,24,28,24
	H-250.4z"/>
<path id="XMLID_560_" fill="#F6A530" stroke="#C17B27" stroke-width="5" stroke-miterlimit="10" d="M-257.3,226.7l37.3,46.4
	c9.5,11.8,28.6,5.1,28.6-10.1v-46.4c0-8.9-7.2-16-16-16h-37.3C-258.3,200.6-265.8,216.2-257.3,226.7z"/>
<path id="XMLID_559_" fill="#F6A530" stroke="#C17B27" stroke-width="5" stroke-miterlimit="10" d="M-311.7,226.1l-37.3,46.5
	c-9.5,11.8-28.5,5.1-28.5-10.1v-46.4c0-8.9,7.2-16,16-16h37.3C-310.7,200-303.2,215.6-311.7,226.1z"/>
<rect id="XMLID_558_" x="-319.7" y="249.7" fill="#52D8D5" stroke="#1B7770" stroke-width="3" stroke-linejoin="round" stroke-miterlimit="10" width="66.8" height="82"/>
<g id="XMLID_548_">
	
		<rect id="XMLID_557_" x="-291.9" y="258.3" fill="#F6A530" stroke="#C17B27" stroke-width="2" stroke-linecap="round" stroke-linejoin="round" stroke-miterlimit="10" width="31" height="11.3"/>
	
		<rect id="XMLID_556_" x="-311.3" y="258.3" fill="#F6A530" stroke="#C17B27" stroke-width="2" stroke-linecap="round" stroke-linejoin="round" stroke-miterlimit="10" width="11.3" height="11.3"/>
	
		<rect id="XMLID_555_" x="-272.4" y="293.9" fill="#FCD381" stroke="#C17B27" stroke-width="2" stroke-linejoin="round" stroke-miterlimit="10" width="11.3" height="11.3"/>
	
		<rect id="XMLID_554_" x="-310.8" y="311.7" fill="#F6A530" stroke="#C17B27" stroke-width="2" stroke-linecap="round" stroke-linejoin="round" stroke-miterlimit="10" width="11.3" height="11.3"/>
	
		<rect id="XMLID_553_" x="-291.9" y="311.7" fill="#F6A530" stroke="#C17B27" stroke-width="2" stroke-linecap="round" stroke-linejoin="round" stroke-miterlimit="10" width="31" height="11.3"/>
	
		<rect id="XMLID_552_" x="-291.9" y="293.9" fill="#F6A530" stroke="#C17B27" stroke-width="2" stroke-linecap="round" stroke-linejoin="round" stroke-miterlimit="10" width="11.3" height="11.3"/>
	
		<rect id="XMLID_551_" x="-311.3" y="276.1" fill="#FCD381" stroke="#C17B27" stroke-width="2" stroke-linejoin="round" stroke-miterlimit="10" width="11.3" height="29.1"/>
	
		<rect id="XMLID_550_" x="-272.4" y="276.1" fill="#FCD381" stroke="#C17B27" stroke-width="2" stroke-linejoin="round" stroke-miterlimit="10" width="11.3" height="11.3"/>
	
		<rect id="XMLID_549_" x="-291.9" y="276.1" fill="#FCD381" stroke="#C17B27" stroke-width="2" stroke-linejoin="round" stroke-miterlimit="10" width="11.3" height="11.3"/>
</g>
</svg>
